<?xml version="1.0" encoding="utf-8"?><svg viewBox="0 0 800 800" xmlns="http://www.w3.org/2000/svg" xmlns:xlink="http://www.w3.org/1999/xlink"><style>:root>svg{display:none}:root>svg:target{display:block}</style><svg viewBox="0 0 44 30" id="bank-card" xmlns="http://www.w3.org/2000/svg"><rect x=".5" y=".5" width="43" height="29" rx="3.5"/><path fill-rule="evenodd" clip-rule="evenodd" d="M22 21.834a9.083 9.083 0 0 1-5.935 2.199c-5.054 0-9.15-4.12-9.15-9.204 0-5.083 4.096-9.204 9.15-9.204 2.264 0 4.337.828 5.935 2.199a9.083 9.083 0 0 1 5.935-2.199c5.054 0 9.15 4.12 9.15 9.204 0 5.083-4.096 9.204-9.15 9.204A9.083 9.083 0 0 1 22 21.834Z"/><path fill-rule="evenodd" clip-rule="evenodd" d="M22 21.834a9.206 9.206 0 0 0 3.215-7.005A9.206 9.206 0 0 0 22 7.824a9.083 9.083 0 0 1 5.935-2.199c5.054 0 9.15 4.12 9.15 9.204 0 5.083-4.096 9.204-9.15 9.204A9.083 9.083 0 0 1 22 21.834Z"/><path fill-rule="evenodd" clip-rule="evenodd" d="M22 21.834a9.206 9.206 0 0 0 3.215-7.005A9.206 9.206 0 0 0 22 7.824a9.206 9.206 0 0 0-3.215 7.005A9.206 9.206 0 0 0 22 21.834Z"/><rect x=".5" y=".5" width="43" height="29" rx="3.5"/></svg><svg viewBox="0 0 32 32" id="chocolate" xmlns="http://www.w3.org/2000/svg"><path d="m13.822 2.413 7.527 7.536.08-.08a.856.856 0 0 1 1.184-.013l.006.006.867.867c.305.305.315.77.083 1.094l-.004.007-.143.192 6.16 6.16c.55.55.55 1.43 0 1.98l-9.43 9.43c-.55.55-1.43.55-1.98 0l-4.447-4.447a.841.841 0 0 1-1.256.071l-2.6-2.6a.856.856 0 0 1-.013-1.184l.006-.007.077-.076-7.527-7.527c-.55-.55-.55-1.43 0-1.98l9.43-9.43c.55-.55 1.43-.55 1.98 0v.001Zm6.582 8.48-1.756-1.755a.592.592 0 0 0-.85 0l-3.58 3.58a.606.606 0 0 0 0 .86l1.749 1.749.61-.61-1.565-1.565 3.21-3.22 1.569 1.574.613-.613Zm-5.076 5.072-1.754-1.754a.592.592 0 0 0-.85 0l-3.58 3.58-.005.005-.005.005c-.24.23-.24.61 0 .85l1.752 1.752.616-.616-1.57-1.564 3.22-3.21 1.564 1.563.612-.611ZM8.822 8.193l3.58 3.58c.24.24.62.24.85-.01l3.58-3.58a.579.579 0 0 0 .18-.42h.01c0-.15-.06-.31-.18-.43l-3.58-3.58a.604.604 0 0 0-.86 0l-3.58 3.59c-.24.23-.24.61 0 .85Zm-5.07 5.07 3.58 3.58c.24.24.62.24.85 0l3.58-3.58a.58.58 0 0 0 .18-.43h.01c0-.16-.06-.31-.18-.43l-3.58-3.58a.592.592 0 0 0-.85 0l-3.59 3.59c-.24.23-.24.61 0 .85Zm6.933 8.754 2.362 2.363 9.636-13.04-.655-.655-11.343 11.332Z"/><path d="m13.822 2.413 7.527 7.536.08-.08a.856.856 0 0 1 1.184-.013l.006.006.867.867c.305.305.315.77.083 1.094l-.004.007-.143.192 6.16 6.16c.55.55.55 1.43 0 1.98l-9.43 9.43c-.55.55-1.43.55-1.98 0l-4.447-4.447a.841.841 0 0 1-1.256.071l-2.6-2.6a.856.856 0 0 1-.013-1.184l.006-.007.077-.076-7.527-7.527c-.55-.55-.55-1.43 0-1.98l9.43-9.43c.55-.55 1.43-.55 1.98 0v.001Zm6.582 8.48-1.756-1.755a.592.592 0 0 0-.85 0l-3.58 3.58a.606.606 0 0 0 0 .86l1.749 1.749.61-.61-1.565-1.565 3.21-3.22 1.569 1.574.613-.613Zm-5.076 5.072-1.754-1.754a.592.592 0 0 0-.85 0l-3.58 3.58-.005.005-.005.005c-.24.23-.24.61 0 .85l1.752 1.752.616-.616-1.57-1.564 3.22-3.21 1.564 1.563.612-.611ZM8.822 8.193l3.58 3.58c.24.24.62.24.85-.01l3.58-3.58a.579.579 0 0 0 .18-.42h.01c0-.15-.06-.31-.18-.43l-3.58-3.58a.604.604 0 0 0-.86 0l-3.58 3.59c-.24.23-.24.61 0 .85Zm-5.07 5.07 3.58 3.58c.24.24.62.24.85 0l3.58-3.58a.58.58 0 0 0 .18-.43h.01c0-.16-.06-.31-.18-.43l-3.58-3.58a.592.592 0 0 0-.85 0l-3.59 3.59c-.24.23-.24.61 0 .85Zm6.933 8.754 2.362 2.363 9.636-13.04-.655-.655-11.343 11.332Z"/></svg><svg viewBox="0 0 32 32" id="coin" xmlns="http://www.w3.org/2000/svg"><path d="M16 2.667c-7.333 0-13.333 6-13.333 13.333s6 13.333 13.333 13.333 13.333-6 13.333-13.333S23.333 2.667 16 2.667Zm0 24c-5.867 0-10.667-4.8-10.667-10.667S10.133 5.333 16 5.333 26.667 10.133 26.667 16 21.867 26.667 16 26.667Z"/><path d="M17.733 14.667h-3.466c-.667 0-1.2-.534-1.2-1.2 0-.667.533-1.2 1.2-1.2H19.2c.8 0 1.334-.534 1.334-1.334S20 9.6 19.2 9.6h-1.866V8.4c0-.8-.534-1.333-1.334-1.333S14.667 7.6 14.667 8.4v1.2h-.4a3.87 3.87 0 0 0-3.867 3.867 3.87 3.87 0 0 0 3.867 3.866H17.6c.667 0 1.2.534 1.2 1.2 0 .667-.533 1.2-1.2 1.2h-4.933c-.8 0-1.333.534-1.333 1.334s.533 1.333 1.333 1.333h2v1.2c0 .8.533 1.333 1.333 1.333.8 0 1.334-.533 1.334-1.333v-1.2h.4a3.87 3.87 0 0 0 3.866-3.867 3.87 3.87 0 0 0-3.867-3.866Z"/></svg><svg viewBox="0 0 10 6" id="down-arrow" xmlns="http://www.w3.org/2000/svg"><path d="M5.473 3.934a.667.667 0 0 1-.947 0L1.473.874a.667.667 0 1 0-.947.94l3.06 3.06a2 2 0 0 0 2.827 0l3.06-3.06a.667.667 0 0 0-.947-.94l-3.053 3.06Z"/></svg><svg viewBox="0 0 32 32" id="flag" xmlns="http://www.w3.org/2000/svg"><g clip-path="url(#clip0_1_1183)"><path d="M31.832 5.058H.242v23.509h31.59V5.058Z"/><path fill-rule="evenodd" clip-rule="evenodd" d="M.243 5.058h31.589v11.754H.242V5.058Z"/></g></svg><svg viewBox="0 0 24 24" id="instagram" xmlns="http://www.w3.org/2000/svg"><path d="M17 2H7a5 5 0 0 0-5 5v10a5 5 0 0 0 5 5h10a5 5 0 0 0 5-5V7a5 5 0 0 0-5-5Z"/><path d="M16 11.37a4 4 0 1 1-7.914 1.173A4 4 0 0 1 16 11.37Z"/><path d="M16 11.37a4 4 0 1 1-7.914 1.173A4 4 0 0 1 16 11.37Zm1.5-4.87h.01m-.01 0h.01"/></svg><svg viewBox="0 0 21 24" id="logo" xmlns="http://www.w3.org/2000/svg"><path d="M7.928 6.982a.69.69 0 0 0-.958.227l-1.893 3.105a.71.71 0 0 0 .23.969l3.623 2.264a.69.69 0 0 0 .958-.227l1.893-3.105a.71.71 0 0 0-.23-.968L7.929 6.982Zm3.936 1.752a.69.69 0 0 0 .958-.226l1.893-3.105a.71.71 0 0 0-.23-.969L10.863 2.17a.69.69 0 0 0-.958.227L8.011 5.5a.71.71 0 0 0 .23.97l3.623 2.263Zm1.384 1.572a.69.69 0 0 0-.958.227l-1.893 3.105a.71.71 0 0 0 .23.969l3.623 2.264a.69.69 0 0 0 .958-.227L17.1 13.54a.71.71 0 0 0-.23-.968l-3.623-2.265Zm3.936 1.752a.69.69 0 0 0 .958-.226l.195-.32a.71.71 0 0 0-.194-.945c-.756-.54-1.308-1.086-1.578-1.713-.298-.693-.244-1.437.144-2.314a.71.71 0 0 0-.272-.887l-.255-.16a.69.69 0 0 0-.958.228L13.33 8.825a.71.71 0 0 0 .23.97l3.623 2.263Zm-3.017 6.294a.71.71 0 0 0-.23-.969l-3.623-2.264a.69.69 0 0 0-.958.227L7.463 18.45a.71.71 0 0 0 .23.968l3.623 2.264a.69.69 0 0 0 .958-.226l1.893-3.105Zm-8.17.007a.69.69 0 0 0 .957-.226l1.893-3.105a.71.71 0 0 0-.23-.969l-3.623-2.264a.69.69 0 0 0-.958.227l-1.892 3.105a.71.71 0 0 0 .229.968l3.623 2.264ZM9.915 1.225a.296.296 0 0 1 .41-.097l7.22 4.51c.14.089.184.274.098.416-.715 1.173-.798 1.941-.531 2.562.15.349.409.66.749.964.341.305.8.633 1.392 1.003.14.088.185.274.098.415l-7.09 11.63a.296.296 0 0 1-.41.098l-10.64-6.648a.304.304 0 0 1-.098-.415L9.916 1.224Z"/></svg><svg viewBox="0 0 44 44" id="pause" xmlns="http://www.w3.org/2000/svg"><path fill-rule="evenodd" clip-rule="evenodd" d="M22 43c11.598 0 21-9.402 21-21S33.598 1 22 1 1 10.402 1 22s9.402 21 21 21Zm0 1c12.15 0 22-9.85 22-22S34.15 0 22 0 0 9.85 0 22s9.85 22 22 22Zm-5-32h2v21h-2V12Zm10 0h-2v21h2V12Z"/></svg><svg viewBox="0 0 64 64" xml:space="preserve" id="play" xmlns="http://www.w3.org/2000/svg"><path d="M46.014 31.105 25.197 20.697a1.003 1.003 0 0 0-1.447.895v20.816a1 1 0 0 0 1.447.895l20.817-10.408a1 1 0 0 0 0-1.79zM25.75 40.79V23.21L43.33 32l-17.58 8.79z"/><path d="M32 0C14.327 0 0 14.327 0 32s14.327 32 32 32 32-14.327 32-32S49.673 0 32 0zm0 62C15.458 62 2 48.542 2 32S15.458 2 32 2s30 13.458 30 30-13.458 30-30 30z"/></svg><svg viewBox="0 0 32 32" id="spoon" xmlns="http://www.w3.org/2000/svg"><path d="M15.452 14.106a5.156 5.156 0 0 1-1.177-3.282c0-4.324 5.181-8.642 10.362-8.642a5.183 5.183 0 0 1 5.181 5.182c0 5.182-4.317 10.364-8.646 10.364a5.154 5.154 0 0 1-3.281-1.177L5.133 29.312a1.73 1.73 0 0 1-2.445-2.445l12.764-12.761Z"/></svg><svg viewBox="0 0 24 24" id="twitter" xmlns="http://www.w3.org/2000/svg"><path d="M23 3a10.9 10.9 0 0 1-3.14 1.53 4.48 4.48 0 0 0-7.86 3v1a10.66 10.66 0 0 1-5.069-1.135c-1.57-.79-3.42-2.672-4.431-4.11C2.5 3.285-1 13 8 17a11.64 11.64 0 0 1-7 2c9 5 20 0 20-11.5 0-.279-.028-.556-.08-.83A7.72 7.72 0 0 0 23 3Z"/></svg></svg>