<?xml version="1.0" encoding="utf-8"?><svg viewBox="0 0 44 44" xmlns="http://www.w3.org/2000/svg" xmlns:xlink="http://www.w3.org/1999/xlink"><style>:root>svg{display:none}:root>svg:target{display:block}</style><svg viewBox="0 0 21 24" id="chocolate" xmlns="http://www.w3.org/2000/svg"><path d="M7.928 6.982a.69.69 0 0 0-.958.227l-1.893 3.105a.71.71 0 0 0 .23.969l3.623 2.264a.69.69 0 0 0 .958-.227l1.893-3.105a.71.71 0 0 0-.23-.968L7.929 6.982Zm3.936 1.752a.69.69 0 0 0 .958-.226l1.893-3.105a.71.71 0 0 0-.23-.969L10.863 2.17a.69.69 0 0 0-.958.227L8.011 5.5a.71.71 0 0 0 .23.97l3.623 2.263Zm1.384 1.572a.69.69 0 0 0-.958.227l-1.893 3.105a.71.71 0 0 0 .23.969l3.623 2.264a.69.69 0 0 0 .958-.227L17.1 13.54a.71.71 0 0 0-.23-.968l-3.623-2.265Zm3.936 1.752a.69.69 0 0 0 .958-.226l.195-.32a.71.71 0 0 0-.194-.945c-.756-.54-1.308-1.086-1.578-1.713-.298-.693-.244-1.437.144-2.314a.71.71 0 0 0-.272-.887l-.255-.16a.69.69 0 0 0-.958.228L13.33 8.825a.71.71 0 0 0 .23.97l3.623 2.263Zm-3.017 6.294a.71.71 0 0 0-.23-.969l-3.623-2.264a.69.69 0 0 0-.958.227L7.463 18.45a.71.71 0 0 0 .23.968l3.623 2.264a.69.69 0 0 0 .958-.226l1.893-3.105Zm-8.17.007a.69.69 0 0 0 .957-.226l1.893-3.105a.71.71 0 0 0-.23-.969l-3.623-2.264a.69.69 0 0 0-.958.227l-1.892 3.105a.71.71 0 0 0 .229.968l3.623 2.264ZM9.915 1.225a.296.296 0 0 1 .41-.097l7.22 4.51c.14.089.184.274.098.416-.715 1.173-.798 1.941-.531 2.562.15.349.409.66.749.964.341.305.8.633 1.392 1.003.14.088.185.274.098.415l-7.09 11.63a.296.296 0 0 1-.41.098l-10.64-6.648a.304.304 0 0 1-.098-.415L9.916 1.224Z"/></svg><svg viewBox="0 0 32 32" id="coin" xmlns="http://www.w3.org/2000/svg"><path d="M16 2.667c-7.333 0-13.333 6-13.333 13.333s6 13.333 13.333 13.333 13.333-6 13.333-13.333S23.333 2.667 16 2.667Zm0 24c-5.867 0-10.667-4.8-10.667-10.667S10.133 5.333 16 5.333 26.667 10.133 26.667 16 21.867 26.667 16 26.667Z"/><path d="M17.733 14.667h-3.466c-.667 0-1.2-.534-1.2-1.2 0-.667.533-1.2 1.2-1.2H19.2c.8 0 1.334-.534 1.334-1.334S20 9.6 19.2 9.6h-1.866V8.4c0-.8-.534-1.333-1.334-1.333S14.667 7.6 14.667 8.4v1.2h-.4a3.87 3.87 0 0 0-3.867 3.867 3.87 3.87 0 0 0 3.867 3.866H17.6c.667 0 1.2.534 1.2 1.2 0 .667-.533 1.2-1.2 1.2h-4.933c-.8 0-1.333.534-1.333 1.334s.533 1.333 1.333 1.333h2v1.2c0 .8.533 1.333 1.333 1.333.8 0 1.334-.533 1.334-1.333v-1.2h.4a3.87 3.87 0 0 0 3.866-3.867 3.87 3.87 0 0 0-3.867-3.866Z"/></svg><svg viewBox="0 0 22 22" id="down-arrow" xmlns="http://www.w3.org/2000/svg"><path d="M11.651 12.283a.916.916 0 0 1-1.301 0l-4.2-4.207a.917.917 0 1 0-1.3 1.292l4.207 4.208a2.75 2.75 0 0 0 3.887 0l4.207-4.208a.916.916 0 0 0-1.301-1.292l-4.199 4.207Z"/></svg><svg viewBox="0 0 24 24" id="instagram" xmlns="http://www.w3.org/2000/svg"><path d="M17 2H7a5 5 0 0 0-5 5v10a5 5 0 0 0 5 5h10a5 5 0 0 0 5-5V7a5 5 0 0 0-5-5Z"/><path d="M16 11.37a4 4 0 1 1-7.914 1.173A4 4 0 0 1 16 11.37Z"/><path d="M16 11.37a4 4 0 1 1-7.914 1.173A4 4 0 0 1 16 11.37Zm1.5-4.87h.01m-.01 0h.01"/></svg><svg viewBox="0 0 24 24" id="logo" xmlns="http://www.w3.org/2000/svg"><g clip-path="url(#clip0_1_5254)"><path d="m2.958 15.057 8.083-13.068.48-.506 6.176 4.118.043 2.486 1.507 2.46-6.66 10.557-9.629-6.047Z"/><path fill-rule="evenodd" clip-rule="evenodd" d="M10.606 1.107a.987.987 0 0 1 1.369-.324l7.22 4.51c.468.293.614.913.327 1.385-.664 1.089-.621 1.6-.486 1.914.186.433.712.924 1.867 1.646.468.293.615.912.327 1.384l-7.09 11.63a.987.987 0 0 1-1.369.324L2.132 16.928a1.013 1.013 0 0 1-.327-1.384l8.801-14.437ZM8.848 7.833l-1.893 3.105 3.624 2.264 1.893-3.105-3.624-2.264Zm4.665.556L9.889 6.125l1.893-3.105 3.623 2.264-1.892 3.105Zm.655 2.768-1.893 3.105 3.623 2.264 1.893-3.105-3.623-2.264Zm4.664.556L15.21 9.45l1.893-3.105.255.16c-.44.995-.546 1.951-.146 2.88.346.807 1.026 1.445 1.816 2.01l-.195.32Zm-3.975 6.52-3.623-2.264-1.893 3.105 3.623 2.264 1.893-3.104Zm-7.212-.219 1.893-3.104-3.624-2.265-1.893 3.105 3.624 2.264Z"/></g></svg><svg viewBox="0 0 44 44" id="play" xmlns="http://www.w3.org/2000/svg"><path d="M15 33V12l20 10.5L15 33Z"/><circle cx="22" cy="22" r="21.5"/></svg><svg viewBox="0 0 32 32" id="spoon" xmlns="http://www.w3.org/2000/svg"><path d="M15.452 14.106a5.156 5.156 0 0 1-1.177-3.282c0-4.324 5.181-8.642 10.362-8.642a5.183 5.183 0 0 1 5.181 5.182c0 5.182-4.317 10.364-8.646 10.364a5.154 5.154 0 0 1-3.281-1.177L5.133 29.312a1.73 1.73 0 0 1-2.445-2.445l12.764-12.761Z"/></svg><svg viewBox="0 0 24 24" id="twitter" xmlns="http://www.w3.org/2000/svg"><path d="M23 3a10.9 10.9 0 0 1-3.14 1.53 4.48 4.48 0 0 0-7.86 3v1a10.66 10.66 0 0 1-5.069-1.135c-1.57-.79-3.42-2.672-4.431-4.11C2.5 3.285-1 13 8 17a11.64 11.64 0 0 1-7 2c9 5 20 0 20-11.5 0-.279-.028-.556-.08-.83A7.72 7.72 0 0 0 23 3Z"/></svg></svg>