<svg id="logo" width="21" height="24" viewBox="0 0 21 24" fill="none" xmlns="http://www.w3.org/2000/svg">
<path d="M7.92829 6.98241C7.60043 6.77754 7.17152 6.87906 6.97028 7.20915L5.07745 10.314C4.87621 10.6441 4.97885 11.0778 5.30671 11.2827L8.93019 13.5469C9.25804 13.7517 9.68695 13.6502 9.88819 13.3201L11.781 10.2152C11.9823 9.88514 11.8796 9.45147 11.5518 9.24661L7.92829 6.98241ZM11.8641 8.7343C12.1919 8.93917 12.6208 8.83765 12.8221 8.50755L14.7149 5.40267C14.9162 5.07257 14.8135 4.6389 14.4857 4.43403L10.8622 2.16983C10.5343 1.96497 10.1054 2.06649 9.90418 2.39658L8.01134 5.50147C7.8101 5.83156 7.91275 6.26523 8.2406 6.4701L11.8641 8.7343ZM13.2479 10.3064C12.92 10.1016 12.4911 10.2031 12.2899 10.5332L10.397 13.6381C10.1958 13.9682 10.2984 14.4018 10.6263 14.6067L14.2498 16.8709C14.5776 17.0758 15.0065 16.9743 15.2078 16.6442L17.1006 13.5393C17.3018 13.2092 17.1992 12.7755 16.8713 12.5706L13.2479 10.3064ZM17.1837 12.0583C17.5115 12.2632 17.9404 12.1617 18.1417 11.8316L18.3368 11.5115C18.5294 11.1956 18.4446 10.7818 18.1433 10.5667C17.387 10.0269 16.8347 9.48135 16.5651 8.85409C16.2671 8.16074 16.3215 7.41741 16.709 6.54043C16.8511 6.21883 16.7348 5.83947 16.4371 5.65341L16.1818 5.49387C15.8539 5.28901 15.425 5.39053 15.2238 5.72062L13.3309 8.8255C13.1297 9.1556 13.2323 9.58927 13.5602 9.79414L17.1837 12.0583ZM14.1667 18.3518C14.3679 18.0218 14.2653 17.5881 13.9374 17.3832L10.314 15.119C9.98611 14.9141 9.5572 15.0157 9.35596 15.3458L7.46312 18.4506C7.26189 18.7807 7.36453 19.2144 7.69239 19.4193L11.3159 21.6835C11.6437 21.8883 12.0726 21.7868 12.2739 21.4567L14.1667 18.3518ZM5.99629 18.3594C6.32414 18.5643 6.75306 18.4628 6.95429 18.1327L8.84713 15.0278C9.04837 14.6977 8.94572 14.264 8.61787 14.0592L4.99439 11.795C4.66654 11.5901 4.23762 11.6916 4.03639 12.0217L2.14355 15.1266C1.94231 15.4567 2.04496 15.8904 2.37281 16.0952L5.99629 18.3594ZM9.91588 1.22479C10.0021 1.08332 10.1859 1.03981 10.3265 1.12761L17.5459 5.6388C17.6864 5.7266 17.7304 5.91246 17.6441 6.05393C16.9291 7.22685 16.8456 7.99512 17.1126 8.61631C17.2623 8.9646 17.522 9.27659 17.8617 9.58005C18.2033 9.88517 18.6612 10.2125 19.2542 10.583C19.3947 10.6708 19.4387 10.8567 19.3524 10.9981L12.2622 22.6285C12.1759 22.77 11.9921 22.8135 11.8516 22.7257L1.21245 16.0776C1.07194 15.9898 1.02795 15.804 1.11419 15.6625L9.91588 1.22479Z" stroke="#FD9222" stroke-width="1.4" stroke-linecap="round" stroke-linejoin="round"/>
</svg>
