<svg id="logo" width="24" height="24" viewBox="0 0 24 24" fill="none" xmlns="http://www.w3.org/2000/svg">
<g clip-path="url(#clip0_1_5254)">
<path d="M2.95799 15.0568L11.0406 1.9886L11.5206 1.48303L17.6974 5.6014L17.7397 8.08665L19.2472 10.5463L12.5874 21.1038L2.95799 15.0568Z" fill="#FCF1E0"/>
<path fill-rule="evenodd" clip-rule="evenodd" d="M10.6064 1.10653C10.8939 0.634964 11.5066 0.489938 11.975 0.782605L19.1944 5.2938C19.6628 5.58647 19.8094 6.206 19.5219 6.67756C18.8579 7.76684 18.901 8.27866 19.0355 8.59158C19.2219 9.02531 19.7478 9.51633 20.9027 10.238C21.3711 10.5307 21.5177 11.1502 21.2302 11.6218L14.14 23.2522C13.8525 23.7237 13.2398 23.8687 12.7714 23.5761L2.13226 16.928C1.66389 16.6353 1.51726 16.0158 1.80474 15.5442L10.6064 1.10653ZM8.84809 7.83278L6.95526 10.9377L10.5787 13.2019L12.4716 10.097L8.84809 7.83278ZM13.5126 8.38929L9.88915 6.1251L11.782 3.02021L15.4055 5.28441L13.5126 8.38929ZM14.1677 11.1568L12.2748 14.2617L15.8983 16.5259L17.7911 13.421L14.1677 11.1568ZM18.8322 11.7133L15.2087 9.44913L17.1016 6.34425L17.3569 6.50379C16.9172 7.49866 16.8113 8.45533 17.2105 9.38419C17.5573 10.191 18.237 10.8291 19.0274 11.3932L18.8322 11.7133ZM14.8572 18.2336L11.2338 15.9694L9.34094 19.0743L12.9644 21.3385L14.8572 18.2336ZM7.64484 18.0144L9.53768 14.9096L5.9142 12.6454L4.02136 15.7502L7.64484 18.0144Z" fill="#FD9222"/>
</g>

</svg>
