<svg id="sound" height="20" version="1.1" viewBox="0 0 20 20" width="20" xmlns="http://www.w3.org/2000/svg"><g ><path d="M 13.777344 2.2226562 L 13.070312 2.9296875 L 13.537109 3.4277344 L 13.96875 3.9570312 L 14.361328 4.5175781 L 14.716797 5.0996094 L 15.03125 5.7050781 L 15.304688 6.3320312 L 15.53125 6.9765625 L 15.716797 7.6328125 L 15.855469 8.3007812 L 15.947266 8.9785156 L 15.994141 9.6582031 L 15.994141 10.341797 L 15.947266 11.021484 L 15.855469 11.699219 L 15.716797 12.367188 L 15.53125 13.023438 L 15.304688 13.669922 L 15.03125 14.294922 L 14.716797 14.900391 L 14.361328 15.482422 L 13.96875 16.042969 L 13.537109 16.572266 L 13.070312 17.070312 L 13.777344 17.777344 L 14.271484 17.251953 L 14.726562 16.695312 L 15.146484 16.111328 L 15.525391 15.498047 L 15.867188 14.865234 L 16.162109 14.208984 L 16.416016 13.537109 L 16.625 12.847656 L 16.789062 12.146484 L 16.90625 11.4375 L 16.976562 10.71875 L 17 10 L 16.976562 9.28125 L 16.90625 8.5644531 L 16.789062 7.8535156 L 16.625 7.1523438 L 16.416016 6.4628906 L 16.162109 5.7910156 L 15.867188 5.1347656 L 15.525391 4.5019531 L 15.146484 3.8886719 L 14.726562 3.3046875 L 14.269531 2.7480469 L 13.777344 2.2226562 z M 6.5859375 3 L 3.5859375 6 L 0 6 L 0 14 L 3.5859375 14 L 6.5859375 17 L 8 17 L 8 3 L 6.5859375 3 z M 7 4 L 7 16 L 4 13 L 1 13 L 1 7 L 4 7 L 7 4 z M 11.65625 4.34375 L 10.951172 5.0507812 L 11.341797 5.4765625 L 11.695312 5.9335938 L 12.013672 6.4160156 L 12.289062 6.9277344 L 12.521484 7.4550781 L 12.708984 8.0019531 L 12.851562 8.5625 L 12.947266 9.1347656 L 12.994141 9.7109375 L 12.994141 10.291016 L 12.947266 10.867188 L 12.851562 11.4375 L 12.708984 11.998047 L 12.521484 12.544922 L 12.289062 13.076172 L 12.013672 13.583984 L 11.695312 14.066406 L 11.341797 14.523438 L 10.951172 14.949219 L 11.65625 15.65625 L 12.064453 15.216797 L 12.4375 14.75 L 12.773438 14.257812 L 13.072266 13.738281 L 13.332031 13.199219 L 13.552734 12.642578 L 13.726562 12.070312 L 13.859375 11.488281 L 13.949219 10.896484 L 13.996094 10.298828 L 13.996094 9.7011719 L 13.949219 9.1035156 L 13.859375 8.5117188 L 13.726562 7.9296875 L 13.552734 7.3574219 L 13.332031 6.8007812 L 13.072266 6.2617188 L 12.773438 5.7441406 L 12.4375 5.25 L 12.064453 4.7832031 L 11.65625 4.34375 z " style="fill:#222222; fill-opacity:1; stroke:none; stroke-width:0px;"/></g></svg>